<svg width="169" height="35" viewBox="0 0 169 35" fill="none" xmlns="http://www.w3.org/2000/svg">
<path d="M12.138 4.92003C13.594 4.92003 14.952 5.34003 16.212 6.18003C17.5 7.02003 18.536 8.15403 19.32 9.58203C20.104 11.01 20.496 12.606 20.496 14.37C20.496 16.106 20.104 17.688 19.32 19.116C18.536 20.544 17.5 21.692 16.212 22.56C14.952 23.4 13.594 23.82 12.138 23.82H4.41L4.83 23.064V31.758C4.83 32.486 4.606 33.102 4.158 33.606C3.71 34.082 3.122 34.32 2.394 34.32C1.694 34.32 1.12 34.082 0.672 33.606C0.224 33.102 0 32.486 0 31.758V7.48203C0 6.75403 0.238 6.15203 0.714 5.67603C1.218 5.17203 1.834 4.92003 2.562 4.92003H12.138ZM12.138 19.032C12.67 19.032 13.188 18.808 13.692 18.36C14.196 17.912 14.616 17.338 14.952 16.638C15.288 15.91 15.456 15.154 15.456 14.37C15.456 13.558 15.288 12.802 14.952 12.102C14.616 11.402 14.196 10.842 13.692 10.422C13.188 9.97403 12.67 9.75003 12.138 9.75003H4.326L4.83 8.99403V19.704L4.368 19.032H12.138Z" fill="currentColor"/>
<path d="M116.018 4.92003C116.69 4.92003 117.236 5.14403 117.656 5.59203C118.076 6.04003 118.286 6.60003 118.286 7.27203V31.758C118.286 32.486 118.034 33.102 117.53 33.606C117.054 34.082 116.452 34.32 115.724 34.32C115.36 34.32 114.982 34.264 114.59 34.152C114.226 34.012 113.946 33.83 113.75 33.606L97.2438 12.648L98.3358 11.976V31.968C98.3358 32.64 98.1118 33.2 97.6638 33.648C97.2438 34.096 96.6838 34.32 95.9838 34.32C95.3118 34.32 94.7658 34.096 94.3458 33.648C93.9258 33.2 93.7158 32.64 93.7158 31.968V7.48203C93.7158 6.75403 93.9538 6.15203 94.4298 5.67603C94.9338 5.17203 95.5498 4.92003 96.2778 4.92003C96.6698 4.92003 97.0758 5.00403 97.4958 5.17203C97.9158 5.31203 98.2238 5.53603 98.4198 5.84403L114.422 26.256L113.708 26.76V7.27203C113.708 6.60003 113.918 6.04003 114.338 5.59203C114.758 5.14403 115.318 4.92003 116.018 4.92003Z" fill="currentColor"/>
<path d="M155.471 4.92003C157.487 4.92003 159.279 5.29803 160.847 6.05403C162.415 6.81003 163.731 7.87403 164.795 9.24603C165.887 10.59 166.699 12.158 167.231 13.95C167.791 15.714 168.071 17.604 168.071 19.62C168.071 22.336 167.581 24.814 166.601 27.054C165.621 29.266 164.193 31.03 162.317 32.346C160.469 33.662 158.187 34.32 155.471 34.32H145.433C144.705 34.32 144.089 34.082 143.585 33.606C143.109 33.102 142.871 32.486 142.871 31.758V7.48203C142.871 6.75403 143.109 6.15203 143.585 5.67603C144.089 5.17203 144.705 4.92003 145.433 4.92003H155.471ZM155.051 29.49C156.815 29.49 158.257 29.042 159.377 28.146C160.497 27.222 161.309 26.018 161.813 24.534C162.345 23.022 162.611 21.384 162.611 19.62C162.611 18.304 162.457 17.058 162.149 15.882C161.869 14.678 161.421 13.628 160.805 12.732C160.189 11.808 159.405 11.08 158.453 10.548C157.501 10.016 156.367 9.75003 155.051 9.75003H147.701L148.121 9.37203V29.952L147.869 29.49H155.051Z" fill="currentColor"/>
<path fill-rule="evenodd" clip-rule="evenodd" d="M69.5746 21C70.2746 19.18 70.6246 17.22 70.6246 15.12C70.6246 13.02 70.2746 11.06 69.5746 9.24C68.8746 7.42 67.8806 5.824 66.5926 4.452C65.3326 3.052 63.8206 1.96 62.0566 1.176C60.3206 0.392 58.4166 0 56.3446 0C54.2726 0 52.3686 0.392 50.6326 1.176C48.8966 1.96 47.3846 3.052 46.0966 4.452C44.8366 5.824 43.8566 7.42 43.1566 9.24C42.4566 11.06 42.1066 13.02 42.1066 15.12C42.1066 17.22 42.4566 19.18 43.1566 21C43.8566 22.82 44.8366 24.43 46.0966 25.83C47.3846 27.202 48.8966 28.28 50.6326 29.064C52.3686 29.848 54.2726 30.24 56.3446 30.24C58.4166 30.24 60.3206 29.848 62.0566 29.064C63.8206 28.28 65.3326 27.202 66.5926 25.83C67.8806 24.43 68.8746 22.82 69.5746 21ZM51.7548 20.2667L51.6852 20.3024C50.9483 20.6808 50.0441 20.3902 49.6657 19.6533C49.2872 18.9163 49.5779 18.0121 50.3148 17.6337C50.3855 17.5974 50.4592 17.5589 50.5359 17.5189C51.3472 17.0952 52.4873 16.5 53.8708 16.5C55.4456 16.5 56.3809 17.4851 56.9039 18.0597C56.9792 18.1424 57.0453 18.2159 57.1049 18.2823C57.2878 18.486 57.41 18.6221 57.5522 18.7477C57.7096 18.8867 57.783 18.9082 57.8096 18.9141C58.3309 19.0299 58.9775 18.963 59.7215 18.7086C60.4571 18.4572 61.1883 18.0563 61.8179 17.6365C62.5072 17.177 63.4385 17.3633 63.898 18.0525C64.3576 18.7418 64.1713 19.6731 63.482 20.1327C62.7152 20.6439 61.7479 21.1864 60.6919 21.5474C59.6444 21.9054 58.4064 22.1199 57.1589 21.8427C56.4667 21.6889 55.9477 21.3332 55.5663 20.9963C55.2793 20.7428 55.0047 20.4356 54.8056 20.2128C54.7617 20.1637 54.7214 20.1186 54.6854 20.0791C54.1986 19.5443 54.046 19.5 53.8708 19.5C53.2473 19.5 52.7362 19.7625 51.7548 20.2667Z" fill="currentColor"/>
</svg>
