<svg width="32" height="13" viewBox="0 0 32 13" fill="none" xmlns="http://www.w3.org/2000/svg">
<path fill-rule="evenodd" clip-rule="evenodd" d="M5.29909 8.89238L5.1527 8.96803C3.60222 9.76893 1.69988 9.15384 0.903685 7.59418C0.107494 6.03451 0.718962 4.12089 2.26944 3.31998C2.41819 3.24314 2.57326 3.16169 2.73451 3.07701C4.44163 2.1804 6.84021 0.920624 9.75096 0.920624C13.0644 0.920624 15.0322 3.00554 16.1325 4.22148C16.291 4.39655 16.43 4.55226 16.5554 4.69279C16.9401 5.12377 17.1974 5.41192 17.4965 5.67764C17.8277 5.97188 17.9819 6.0173 18.0381 6.02985C19.1348 6.27501 20.4952 6.13329 22.0606 5.59499C23.6081 5.06286 25.1465 4.21433 26.4712 3.32595C27.9214 2.35341 29.8808 2.74761 30.8476 4.20643C31.8145 5.66525 31.4226 7.63627 29.9724 8.60881C28.3591 9.69071 26.324 10.8389 24.1022 11.6029C21.8983 12.3607 19.2936 12.8146 16.6689 12.2279C15.2127 11.9024 14.1208 11.1495 13.3183 10.4366C12.7145 9.90016 12.1368 9.24999 11.7178 8.77849C11.6253 8.67441 11.5406 8.57903 11.465 8.49551C10.4408 7.36367 10.1196 7.26983 9.75096 7.26983C8.43913 7.26983 7.36389 7.82544 5.29909 8.89238Z" fill="currentColor"/>
</svg>
