<svg width="60" height="64" viewBox="0 0 60 64" fill="none" xmlns="http://www.w3.org/2000/svg">
<path fill-rule="evenodd" clip-rule="evenodd" d="M57.7909 44.4445C59.2636 40.5926 60 36.4445 60 32C60 27.5556 59.2636 23.4074 57.7909 19.5556C56.3181 15.7037 54.2268 12.3259 51.5169 9.42222C48.866 6.45926 45.6848 4.14815 41.9735 2.48889C38.3211 0.829629 34.3152 0 29.9558 0C25.5965 0 21.5906 0.829629 17.9381 2.48889C14.2857 4.14815 11.1046 6.45926 8.3947 9.42222C5.74374 12.3259 3.68188 15.7037 2.20913 19.5556C0.736375 23.4074 0 27.5556 0 32C0 36.4445 0.736375 40.5926 2.20913 44.4445C3.68188 48.2963 5.74374 51.7037 8.3947 54.6667C11.1046 57.5704 14.2857 59.8519 17.9381 61.5111C21.5906 63.1704 25.5965 64 29.9558 64C34.3152 64 38.3211 63.1704 41.9735 61.5111C45.6848 59.8519 48.866 57.5704 51.5169 54.6667C54.2268 51.7037 56.3181 48.2963 57.7909 44.4445ZM20.2991 42.8924L20.1527 42.968C18.6022 43.7689 16.6999 43.1539 15.9037 41.5942C15.1075 40.0345 15.719 38.1209 17.2694 37.32C17.4182 37.2432 17.5733 37.1617 17.7345 37.077C19.4416 36.1804 21.8402 34.9206 24.751 34.9206C28.0644 34.9206 30.0322 37.0055 31.1325 38.2215C31.291 38.3966 31.43 38.5523 31.5554 38.6928C31.9401 39.1238 32.1974 39.4119 32.4965 39.6777C32.8277 39.9719 32.9819 40.0173 33.0381 40.0299C34.1348 40.275 35.4952 40.1333 37.0606 39.595C38.6081 39.0629 40.1465 38.2143 41.4712 37.326C42.9214 36.3534 44.8808 36.7476 45.8476 38.2064C46.8145 39.6653 46.4226 41.6363 44.9724 42.6088C43.3591 43.6907 41.324 44.8389 39.1022 45.6029C36.8983 46.3607 34.2936 46.8146 31.6689 46.2279C30.2127 45.9024 29.1208 45.1495 28.3183 44.4366C27.7145 43.9002 27.1368 43.25 26.7178 42.7785C26.6253 42.6744 26.5406 42.579 26.465 42.4955C25.4408 41.3637 25.1196 41.2698 24.751 41.2698C23.4391 41.2698 22.3639 41.8255 20.2991 42.8924Z" fill="white"/>
</svg>
